<?xml version="1.0" encoding="utf-8"?>
<!-- Generator: Adobe Illustrator 17.1.0, SVG Export Plug-In . SVG Version: 6.00 Build 0)  -->
<!DOCTYPE svg PUBLIC "-//W3C//DTD SVG 1.1//EN" "http://www.w3.org/Graphics/SVG/1.1/DTD/svg11.dtd">
<svg version="1.1" id="Layer_1" xmlns="http://www.w3.org/2000/svg" xmlns:xlink="http://www.w3.org/1999/xlink" x="0px" y="0px"
	 viewBox="0 0 512 512" enable-background="new 0 0 512 512" xml:space="preserve">
<g>
	<path fill="#184473" d="M68,167.7L68,167.7l-35-20.3v243.2L243.2,512V269.2l-123.8-71.8L68,167.7z M207.9,450.9L68.2,370.3V208.7
		l2.9,1.7l0.1,0L207.9,450.9z"/>
	<path fill="#03B6F0" d="M433.7,140.3l33-19.1L256.9,0l-210,121.3l55.6,32.2l2.4,1.3l35.4,20.5l0,0l116.6,67.5L366,179.6
		L433.7,140.3z M117.4,121.3l139.5-80.6l139.4,80.5L117.4,121.3z"/>
	<path fill="#0582D2" d="M444,167.7L444,167.7l-51.4,29.7l-10.8,6.3l-113.1,65.6V512l210.3-121.4V147.4L444,167.7z M443.8,370.2
		l-139.7,80.6l139.7-242.3V370.2z"/>
</g>
</svg>
